<svg xmlns="http://www.w3.org/2000/svg" viewBox="0 0 120 120" role="img" aria-label="15パズル">
  <rect x="18" y="18" width="84" height="84" rx="2" fill="none" stroke="#0a0a0a" stroke-width="4"/>
  <path fill="none" stroke="#737373" stroke-width="2" d="M24 24H45.33V45.33H24ZM49.33 24H70.67V45.33H49.33ZM74.67 24H96V45.33H74.67ZM24 49.33H45.33V70.67H24ZM49.33 49.33H70.67V70.67H49.33ZM74.67 49.33H96V70.67H74.67ZM24 74.67H45.33V96H24ZM62 74.67H83.33V96H62Z"/>
  <path fill="#737373" d="M38.27 65.65Q36.96 65.65 36.11 64.98Q35.26 64.31 34.86 63.04Q34.46 61.77 34.46 59.95Q34.46 58.13 34.85 56.88Q35.25 55.63 36.08 54.98Q36.91 54.33 38.22 54.33Q39.55 54.33 40.4 54.99Q41.25 55.66 41.65 56.93Q42.05 58.2 42.05 60.04Q42.05 61.3 41.85 62.35Q41.65 63.39 41.21 64.12Q40.77 64.85 40.04 65.25Q39.3 65.65 38.27 65.65ZM85.31 40.32Q84.25 40.32 83.43 39.99Q82.61 39.66 82.14 39.01Q81.67 38.36 81.67 37.39Q81.67 36.7 81.92 36.15Q82.16 35.6 82.63 35.17Q83.09 34.74 83.75 34.41Q83.2 34.04 82.81 33.63Q82.43 33.21 82.22 32.72Q82.02 32.22 82.02 31.64Q82.02 30.77 82.48 30.18Q82.93 29.6 83.7 29.31Q84.46 29.01 85.34 29.01Q86.25 29.01 87.01 29.31Q87.76 29.6 88.21 30.18Q88.66 30.77 88.66 31.65Q88.66 32.56 88.16 33.21Q87.66 33.86 86.73 34.35Q87.47 34.74 87.97 35.19Q88.47 35.65 88.74 36.17Q89 36.7 89 37.34Q89 38.27 88.52 38.93Q88.04 39.6 87.21 39.96Q86.37 40.32 85.31 40.32ZM34.81 40.34Q33.91 40.34 33.19 40.01Q32.48 39.69 31.97 39.05Q31.47 38.41 31.2 37.46Q30.92 36.51 30.92 35.25Q30.92 33.86 31.2 32.72Q31.49 31.57 32.12 30.75Q32.75 29.92 33.78 29.47Q34.81 29.01 36.27 29.01Q36.6 29.01 36.97 29.04Q37.34 29.07 37.6 29.14V30.76Q37.29 30.68 36.94 30.63Q36.6 30.59 36.22 30.59Q35.31 30.59 34.68 30.86Q34.05 31.13 33.65 31.61Q33.25 32.1 33.04 32.81Q32.83 33.52 32.77 34.38H32.86Q33.09 33.98 33.43 33.69Q33.77 33.39 34.23 33.24Q34.7 33.09 35.3 33.09Q36.8 33.09 37.61 34Q38.42 34.92 38.42 36.54Q38.42 37.7 37.98 38.55Q37.55 39.41 36.74 39.87Q35.93 40.34 34.81 40.34ZM38.81 90.83V88.47H34.23V87.04L38.75 79.79H40.64V86.91H42.13V88.47H40.64V90.83ZM85.21 65.5V64.05L87.99 61.29Q88.68 60.59 89.22 59.99Q89.76 59.39 90.07 58.8Q90.38 58.22 90.38 57.57Q90.38 56.78 89.94 56.39Q89.5 56 88.79 56Q88.13 56 87.53 56.28Q86.94 56.57 86.31 57.09L85.23 55.8Q85.77 55.33 86.3 55.01Q86.83 54.69 87.46 54.51Q88.09 54.33 88.91 54.33Q89.98 54.33 90.75 54.72Q91.52 55.1 91.94 55.78Q92.35 56.46 92.35 57.38Q92.35 58.31 91.97 59.1Q91.58 59.88 90.93 60.6Q90.29 61.32 89.47 62.08L87.69 63.73V63.85H92.75V65.5ZM30.12 58.94Q30.12 58.53 30.13 58.11Q30.14 57.69 30.15 57.29Q30.17 56.89 30.18 56.55Q29.95 56.69 29.74 56.81Q29.52 56.92 29.27 57.06L28.13 57.66L27.28 56.15L30.46 54.48H32.02V63.97L34.18 64.17V65.5H27.93V64.17L30.12 63.97ZM63.17 58.94Q63.17 58.53 63.18 58.11Q63.19 57.69 63.2 57.29Q63.22 56.89 63.23 56.55Q63 56.69 62.78 56.81Q62.57 56.92 62.32 57.06L61.18 57.66L60.33 56.15L63.51 54.48H65.07V63.97L67.23 64.17V65.5H60.98V64.17L63.17 63.97ZM55.61 58.94Q55.61 58.53 55.62 58.11Q55.63 57.69 55.64 57.29Q55.66 56.89 55.67 56.55Q55.44 56.69 55.23 56.81Q55.01 56.92 54.76 57.06L53.62 57.66L52.77 56.15L55.95 54.48H57.51V63.97L59.67 64.17V65.5H53.42V64.17L55.61 63.97ZM80.75 58.94Q80.75 58.53 80.76 58.11Q80.77 57.69 80.78 57.29Q80.8 56.89 80.81 56.55Q80.58 56.69 80.37 56.81Q80.15 56.92 79.9 57.06L78.76 57.66L77.91 56.15L81.09 54.48H82.65V63.97L84.81 64.17V65.5H78.56V64.17L80.75 63.97ZM30.05 84.28Q30.05 83.86 30.05 83.44Q30.06 83.03 30.08 82.63Q30.09 82.22 30.11 81.89Q29.88 82.02 29.66 82.14Q29.44 82.26 29.2 82.39L28.06 83L27.21 81.48L30.39 79.82H31.94V89.31L34.1 89.51V90.83H27.86V89.51L30.05 89.31ZM57.56 40.17 61.73 30.8H56.2V29.17H63.8V30.49L59.63 40.17ZM34.76 38.67Q35.58 38.67 36.05 38.16Q36.52 37.65 36.52 36.56Q36.52 35.62 36.09 35.11Q35.67 34.6 34.81 34.6Q34.27 34.6 33.83 34.85Q33.39 35.11 33.13 35.53Q32.88 35.95 32.88 36.53Q32.88 36.87 32.95 37.18Q33.03 37.5 33.19 37.78Q33.34 38.05 33.57 38.25Q33.8 38.44 34.1 38.55Q34.4 38.67 34.76 38.67ZM85.31 38.78Q86.22 38.78 86.68 38.35Q87.15 37.93 87.15 37.28Q87.15 36.85 86.94 36.52Q86.73 36.19 86.3 35.87Q85.87 35.55 85.2 35.2Q84.66 35.46 84.29 35.77Q83.92 36.08 83.73 36.46Q83.54 36.83 83.54 37.3Q83.54 37.96 83.98 38.37Q84.43 38.78 85.31 38.78ZM38.24 64.07Q39.32 64.07 39.77 63.07Q40.21 62.08 40.21 60.05Q40.21 58.99 40.08 58.18L36.92 63.41Q37.37 64.07 38.24 64.07ZM39.44 56.48Q39.42 56.46 39.4 56.44Q38.98 55.95 38.24 55.95Q37.53 55.95 37.1 56.41Q36.68 56.88 36.49 57.78Q36.29 58.68 36.29 60.04Q36.29 60.91 36.38 61.59ZM36 86.91H38.81V84.71Q38.81 84.45 38.82 84.05Q38.84 83.64 38.86 83.23Q38.87 82.81 38.89 82.48Q38.9 82.15 38.92 82.01H38.86Q38.73 82.32 38.55 82.65Q38.36 82.98 38.19 83.27ZM85.34 33.53Q85.82 33.3 86.14 33.05Q86.45 32.81 86.62 32.49Q86.79 32.18 86.79 31.79Q86.79 31.2 86.39 30.89Q85.99 30.57 85.33 30.57Q84.68 30.57 84.28 30.89Q83.89 31.22 83.89 31.79Q83.89 32.22 84.08 32.54Q84.28 32.85 84.61 33.09Q84.94 33.32 85.34 33.53Z"/>
  <path fill="#0a0a0a" d="M75.74 90.99Q75.03 90.99 74.29 90.83Q73.55 90.68 73.01 90.39V88.64Q73.62 88.98 74.33 89.15Q75.03 89.32 75.71 89.32Q76.76 89.32 77.31 88.87Q77.87 88.41 77.87 87.45Q77.87 86.74 77.58 86.31Q77.29 85.88 76.82 85.67Q76.34 85.46 75.74 85.46Q75.3 85.46 74.83 85.53Q74.36 85.6 74.04 85.73L73.21 85.26L73.62 79.82H79.25V81.47H75.32L75.1 84.06Q75.46 83.98 75.82 83.95Q76.18 83.92 76.45 83.92Q77.42 83.92 78.19 84.31Q78.96 84.69 79.42 85.45Q79.87 86.21 79.87 87.33Q79.87 88.5 79.35 89.32Q78.82 90.14 77.89 90.56Q76.96 90.99 75.74 90.99ZM68.3 84.28Q68.3 83.86 68.31 83.44Q68.32 83.03 68.33 82.63Q68.35 82.22 68.36 81.89Q68.13 82.02 67.91 82.14Q67.7 82.26 67.45 82.39L66.31 83L65.46 81.48L68.64 79.82H70.2V89.31L72.36 89.51V90.83H66.11V89.51L68.3 89.31Z"/>
</svg>
