<svg xmlns="http://www.w3.org/2000/svg" viewBox="0 0 120 120" role="img" aria-label="ウォーターソート">
  <g transform="translate(-1 3)">
    <g fill="none" stroke="#111" stroke-width="4" stroke-linecap="round" stroke-linejoin="round">
      <path d="M24 25v55c0 9 6 15 15 15s15-6 15-15V25"/>
      <path d="M20 25h38"/>
      <path d="M68 17v63c0 9 6 15 15 15s15-6 15-15V17"/>
      <path d="M64 17h38"/>
    </g>
    <path fill="#777" d="M28 67h22v13c0 7-4 11-11 11s-11-4-11-11z"/>
    <path fill="#777" d="M72 56h22v24c0 7-4 11-11 11s-11-4-11-11z"/>
  </g>
</svg>
